# xmcd
#
# Track frame offsets:
#	150
#	11857
#	22392
#	38612
#	51655
#	65502
#	79254
#	94965
#	114200
#	128050
#	139612
#	157825
#	176755
#	193007
#	205190
#
# Disc length: 3022
#
# Revision: 2
# Processed by: cddbd v1.5.1PL0 Copyright (c) Steve Scherf et al.
# Submitted via: ExactAudioCopy v0.95a5
# Normalized: r1:DSETVAR1
#
DISCID=d20bcc0f
DTITLE=Various Artist - Classic Country Great Story Songs II [CD1]
DYEAR=2002
DGENRE=Country
TTITLE0=Hank Williams - Kaw-Liga
TTITLE1=Johnny Horton - Johnny Reb
TTITLE2=Lorne Greene - Ringo
TTITLE3=Marty Robbins - The Hanging Tree
TTITLE4=Tanya Tucker - Lizzie And The Rainman
TTITLE5=Porter Wagoner - Skid Row Joe
TTITLE6=Bill Anderson - Mama Sang A Song
TTITLE7=Bobbie Gentry - Ode To Billie Joe
TTITLE8=Tom T. Hall - The Ballad Of Forty Dollars
TTITLE9=Charlie Ryan - Hot Rod Lincoln
TTITLE10=Johnny Cash - One Piece At A Time
TTITLE11=Kris Kristofferson - Me And Bobby McGee
TTITLE12=Vicki Lawrence - The Night The Lights Went Out In Georgia
TTITLE13=Jim Stafford - Wildwood Weed
TTITLE14=Willie Nelson And Merle Haggard - Pancho And Lefty
EXTD=
EXTT0=
EXTT1=
EXTT2=
EXTT3=
EXTT4=
EXTT5=
EXTT6=
EXTT7=
EXTT8=
EXTT9=
EXTT10=
EXTT11=
EXTT12=
EXTT13=
EXTT14=
PLAYORDER=
